HIERARCHY
ROOT Hips
{
  OFFSET 53.2023 85.9872 49.721
  CHANNELS 6 Xposition Yposition Zposition Zrotation Xrotation Yrotation
  JOINT spine
  {
    OFFSET 0 6.3926 0.367606
    CHANNELS 3 Zrotation Xrotation Yrotation
    JOINT spine1
    {
      OFFSET 0 9.17611 0
      CHANNELS 3 Zrotation Xrotation Yrotation
      JOINT spine2
      {
        OFFSET 0 8.79238 0
        CHANNELS 3 Zrotation Xrotation Yrotation
        JOINT Neck
        {
          OFFSET 0 22.5737 1.07624
          CHANNELS 3 Zrotation Xrotation Yrotation
          JOINT Head
          {
            OFFSET 0 6.82011 0
            CHANNELS 3 Zrotation Xrotation Yrotation
            End Site
            {
              OFFSET 0 16.5085 -5.44427
            }
          }
        }
        JOINT RightShoulder
        {
          OFFSET -3.70221 9.49509 -0.515508
          CHANNELS 3 Zrotation Xrotation Yrotation
          JOINT RightArm
          {
            OFFSET 0 12.4537 0
            CHANNELS 3 Zrotation Xrotation Yrotation
            JOINT RightArmRoll
            {
              OFFSET 0 6.28686 0
              CHANNELS 3 Zrotation Xrotation Yrotation
              JOINT RightForeArm
              {
                OFFSET 0 18.3114 0
                CHANNELS 3 Zrotation Xrotation Yrotation
                JOINT RightForeArmRoll
                {
                  OFFSET 0 7.05482 0
                  CHANNELS 3 Zrotation Xrotation Yrotation
                  JOINT RightHand
                  {
                    OFFSET 0 14.1575 0
                    CHANNELS 3 Zrotation Xrotation Yrotation
                    End Site
                    {
                      OFFSET 0 0 0
                    }
                  }
                }
              }
            }
          }
        }
        JOINT LeftShoulder
        {
          OFFSET 3.70221 9.49509 -0.515508
          CHANNELS 3 Zrotation Xrotation Yrotation
          JOINT LeftArm
          {
            OFFSET 0 12.4537 0
            CHANNELS 3 Zrotation Xrotation Yrotation
            JOINT LeftArmRoll
            {
              OFFSET 0 6.28686 0
              CHANNELS 3 Zrotation Xrotation Yrotation
              JOINT LeftForeArm
              {
                OFFSET 0 18.3114 0
                CHANNELS 3 Zrotation Xrotation Yrotation
                JOINT LeftForeArmRoll
                {
                  OFFSET 0 7.05483 0
                  CHANNELS 3 Zrotation Xrotation Yrotation
                  JOINT LeftHand
                  {
                    OFFSET 0 14.1575 0
                    CHANNELS 3 Zrotation Xrotation Yrotation
                    End Site
                    {
                      OFFSET 0 0 0
                    }
                  }
                }
              }
            }
          }
        }
      }
    }
  }
  JOINT RightUpLeg
  {
    OFFSET -5.66616 -1.03903 -0.87161
    CHANNELS 3 Zrotation Xrotation Yrotation
    JOINT RightUpLegRoll
    {
      OFFSET 0 16.6005 0
      CHANNELS 3 Zrotation Xrotation Yrotation
      JOINT RightLeg
      {
        OFFSET 0 -20.5572 0
        CHANNELS 3 Zrotation Xrotation Yrotation
        JOINT RightLegRoll
        {
          OFFSET 0 20.6244 0
          CHANNELS 3 Zrotation Xrotation Yrotation
          JOINT RightFoot
          {
            OFFSET 0 17.1664 0
            CHANNELS 3 Zrotation Xrotation Yrotation
            JOINT RightToeBase
            {
              OFFSET 0 14.3502 0
              CHANNELS 3 Zrotation Xrotation Yrotation
              End Site
              {
                OFFSET 0.00608251 6.94971 -0.801061
              }
            }
          }
        }
      }
    }
  }
  JOINT LeftUpLeg
  {
    OFFSET 5.66616 -1.03903 -0.87161
    CHANNELS 3 Zrotation Xrotation Yrotation
    JOINT LeftUpLegRoll
    {
      OFFSET 0 16.6006 0
      CHANNELS 3 Zrotation Xrotation Yrotation
      JOINT LeftLeg
      {
        OFFSET 0 20.5571 0
        CHANNELS 3 Zrotation Xrotation Yrotation
        JOINT LeftLegRoll
        {
          OFFSET 0 20.8151 0
          CHANNELS 3 Zrotation Xrotation Yrotation
          JOINT LeftFoot
          {
            OFFSET 0 16.9757 0
            CHANNELS 3 Zrotation Xrotation Yrotation
            JOINT LeftToeBase
            {
              OFFSET 0 14.3502 0
              CHANNELS 3 Zrotation Xrotation Yrotation
              End Site
              {
                OFFSET -0.0272592 6.9497 -0.801061
              }
            }
          }
        }
      }
    }
  }
}
MOTION
Frames: 10
Frame Time: 0.00208333
51.8924 57.4815 9.27643 -0.764721 -11.1717 -0.810519 0.0966183 -1.04901 -0.993133 0.178215 1.89444 -2.00064 0.202374 3.5391 -2.00489 -8.33305 19.4525 6.22284 4.54787 -0.0762264 3.54609 75.413 9.52779 2.21885 93.6253 16.7247 -18.7082 -9.11264e-006 -1.36691e-006 -7.03043e-006 20.9303 54.0325 -10.9704 8.61274e-006 -6.49422e-006 -3 8.02888 -4.95084 0.697398 -73.0478 -9.17689 5.9127 -95.1885 19.2946 22.4377 4.32814e-006 -1.56669e-006 -6.34797e-007 -27.1766 52.4096 16.5063 2.83392e-006 9.31641e-006 2.99999 -8.02896 -4.95088 -0.697397 167.96 65.4558 14.0634 180 -1.52566e-005 179.019 175.66 67.8991 -179.286 2.80283e-006 -3.99564e-006 1.04991 -17.0465 65.7848 17.8674 8.13649 25.2327 -3.48774 -152.019 65.0539 -26.0596 4.54188e-006 -4.6773e-006 -1.09494 6.13672 -74.3351 6.55754 2.2066e-006 -3.05657e-006 -1.42385 16.1826 63.5185 -16.4075 -8.13661 25.2344 3.4854 
51.8926 57.4801 9.27653 -0.764438 -11.1709 -0.810835 0.0964892 -1.04984 -0.993032 0.178407 1.89343 -2.00012 0.202561 3.53809 -2.00438 -8.34336 19.4671 6.22812 4.55575 -0.0869804 3.54765 75.4106 9.52908 2.21988 93.6262 16.7214 -18.7054 -9.11264e-006 -1.36691e-006 -7.03043e-006 20.9295 54.0322 -10.9701 8.61274e-006 -6.49422e-006 -3 8.02888 -4.95084 0.697398 -73.049 -9.17741 5.91297 -95.1867 19.2932 22.4391 4.32814e-006 -1.56669e-006 -6.34797e-007 -27.1785 52.4117 16.5081 2.83392e-006 9.31641e-006 2.99999 -8.02896 -4.95088 -0.697397 167.962 65.4577 14.0652 180 -1.52566e-005 179.019 175.656 67.9073 -179.282 2.80283e-006 -3.99564e-006 1.04991 -17.061 65.7851 17.8667 8.13649 25.2327 -3.48774 -152.008 65.0572 -26.0708 4.54188e-006 -4.6773e-006 -1.09494 6.13959 -74.3406 6.56047 2.2066e-006 -3.05657e-006 -1.42385 16.1831 63.5194 -16.4081 -8.13661 25.2344 3.4854 
51.8911 57.4885 9.27017 -0.764265 -11.1702 -0.811337 0.096404 -1.05065 -0.992974 0.1787 1.89249 -1.99968 0.202848 3.53715 -2.00394 -8.35527 19.4817 6.23406 4.56517 -0.0981647 3.54943 75.4081 9.53103 2.22124 93.627 16.7179 -18.7023 -9.11264e-006 -1.36691e-006 -7.03043e-006 20.9286 54.032 -10.9699 8.61274e-006 -6.49422e-006 -3 8.02888 -4.95084 0.697398 -73.0503 -9.17858 5.91354 -95.185 19.2921 22.4408 4.32814e-006 -1.56669e-006 -6.34797e-007 -27.1806 52.4138 16.51 2.83392e-006 9.31641e-006 2.99999 -8.02896 -4.95088 -0.697397 167.966 65.4595 14.0667 180 -1.52566e-005 179.019 175.652 67.9159 -179.279 2.80283e-006 -3.99564e-006 1.04991 -17.0764 65.7855 17.8659 8.13649 25.2327 -3.48774 -151.997 65.0604 -26.0828 4.54188e-006 -4.6773e-006 -1.09493 6.14276 -74.3463 6.56367 2.2066e-006 -3.05657e-006 -1.42385 16.1837 63.5204 -16.4087 -8.13661 25.2344 3.4854 
51.8906 57.4755 9.27878 -0.76417 -11.1696 -0.811969 0.0963497 -1.05144 -0.992947 0.179062 1.8916 -1.9993 0.203206 3.53625 -2.00357 -8.3683 19.496 6.24046 4.57566 -0.109652 3.55137 75.4053 9.53344 2.22284 93.6277 16.7143 -18.6989 -9.11264e-006 -1.36691e-006 -7.03043e-006 20.9277 54.0318 -10.9696 8.61274e-006 -6.49422e-006 -3 8.02888 -4.95084 0.697398 -73.0518 -9.18018 5.91432 -95.1833 19.2911 22.4428 4.32814e-006 -1.56669e-006 -6.34797e-007 -27.1827 52.4159 16.5119 2.83392e-006 9.31641e-006 2.99999 -8.02896 -4.95088 -0.697397 167.969 65.4612 14.0679 180 -1.52566e-005 179.019 175.647 67.9248 -179.274 2.80283e-006 -3.99564e-006 1.04991 -17.0925 65.7858 17.8652 8.13649 25.2327 -3.48774 -151.985 65.0636 -26.0952 4.54188e-006 -4.6773e-006 -1.09493 6.14614 -74.3523 6.56706 2.2066e-006 -3.05657e-006 -1.42385 16.1843 63.5214 -16.4094 -8.13661 25.2344 3.4854 
51.8912 57.4599 9.29861 -0.764119 -11.169 -0.812678 0.0963133 -1.05222 -0.992938 0.179465 1.89073 -1.99894 0.203605 3.53539 -2.00322 -8.38199 19.5104 6.24714 4.58678 -0.121314 3.5534 75.4025 9.53612 2.22457 93.6285 16.7106 -18.6954 -9.11264e-006 -1.36691e-006 -7.03043e-006 20.9267 54.0317 -10.9694 8.61274e-006 -6.49422e-006 -3 8.02888 -4.95084 0.697398 -73.0532 -9.18205 5.91523 -95.1817 19.2902 22.4448 4.32814e-006 -1.56669e-006 -6.34797e-007 -27.1849 52.418 16.5138 2.83392e-006 9.31641e-006 2.99999 -8.02896 -4.95088 -0.697397 167.974 65.463 14.0689 180 -1.52566e-005 179.019 175.642 67.934 -179.27 2.80283e-006 -3.99564e-006 1.04991 -17.109 65.7861 17.8644 8.13649 25.2327 -3.48774 -151.973 65.0667 -26.108 4.54188e-006 -4.6773e-006 -1.09493 6.14966 -74.3583 6.57056 2.2066e-006 -3.05657e-006 -1.42385 16.1849 63.5225 -16.4101 -8.13661 25.2344 3.4854 
51.8899 57.4661 9.29419 -0.76408 -11.1684 -0.813406 0.0962818 -1.05299 -0.992934 0.179879 1.88988 -1.99859 0.204015 3.53454 -2.00289 -8.39585 19.5247 6.25389 4.59806 -0.133023 3.55546 75.3996 9.53888 2.22633 93.6292 16.7069 -18.6919 -9.11264e-006 -1.36691e-006 -7.03043e-006 20.9256 54.0315 -10.9692 8.61274e-006 -6.49422e-006 -3 8.02888 -4.95084 0.697398 -73.0547 -9.18399 5.91617 -95.18 19.2893 22.4468 4.32814e-006 -1.56669e-006 -6.34797e-007 -27.1871 52.4201 16.5157 2.83392e-006 9.31641e-006 2.99999 -8.02896 -4.95088 -0.697397 167.978 65.4647 14.0698 180 -1.52566e-005 179.019 175.638 67.9431 -179.266 2.80283e-006 -3.99564e-006 1.04991 -17.1256 65.7865 17.8635 8.13649 25.2327 -3.48774 -151.961 65.0699 -26.1208 4.54188e-006 -4.6773e-006 -1.09493 6.15321 -74.3644 6.5741 2.2066e-006 -3.05657e-006 -1.42385 16.1855 63.5235 -16.4108 -8.13661 25.2344 3.4854 
51.8923 57.467 9.29452 -0.76402 -11.1678 -0.814101 0.0962421 -1.05378 -0.992921 0.180274 1.88901 -1.99823 0.204407 3.53367 -2.00254 -8.40942 19.539 6.26052 4.60907 -0.144653 3.55747 75.3968 9.54151 2.22804 93.63 16.7032 -18.6884 -9.11264e-006 -1.36691e-006 -7.03043e-006 20.9247 54.0314 -10.9689 8.61274e-006 -6.49422e-006 -3 8.02888 -4.95084 0.697398 -73.0562 -9.18581 5.91705 -95.1784 19.2884 22.4489 4.32814e-006 -1.56669e-006 -6.34797e-007 -27.1892 52.4222 16.5176 2.83392e-006 9.31641e-006 2.99999 -8.02896 -4.95088 -0.697397 167.982 65.4665 14.0709 180 -1.52566e-005 179.019 175.633 67.9522 -179.262 2.80283e-006 -3.99564e-006 1.04991 -17.142 65.7868 17.8627 8.13649 25.2327 -3.48774 -151.948 65.073 -26.1335 4.54188e-006 -4.6773e-006 -1.09493 6.15671 -74.3705 6.57759 2.2066e-006 -3.05657e-006 -1.42385 16.1862 63.5246 -16.4115 -8.13661 25.2344 3.4854 
51.8935 57.469 9.29322 -0.763908 -11.1672 -0.814705 0.0961812 -1.05457 -0.992888 0.180622 1.88811 -1.99783 0.20475 3.53276 -2.00215 -8.42223 19.5534 6.26683 4.61933 -0.156075 3.55938 75.394 9.54382 2.22959 93.6307 16.6996 -18.6851 -9.11264e-006 -1.36691e-006 -7.03043e-006 20.9237 54.0312 -10.9687 8.61274e-006 -6.49422e-006 -3 8.02888 -4.95084 0.697398 -73.0576 -9.18732 5.91779 -95.1767 19.2874 22.4507 4.32814e-006 -1.56669e-006 -6.34797e-007 -27.1914 52.4243 16.5195 2.83392e-006 9.31641e-006 2.99999 -8.02896 -4.95088 -0.697397 167.986 65.4682 14.0721 180 -1.52566e-005 179.019 175.628 67.9611 -179.258 2.80283e-006 -3.99564e-006 1.04991 -17.1579 65.7871 17.8619 8.13649 25.2327 -3.48774 -151.937 65.0762 -26.1458 4.54188e-006 -4.6773e-006 -1.09493 6.16006 -74.3764 6.58095 2.2066e-006 -3.05657e-006 -1.42385 16.1867 63.5256 -16.4121 -8.13661 25.2344 3.4854 
51.8914 57.4692 9.29158 -0.76371 -11.1665 -0.815165 0.0960861 -1.05538 -0.99282 0.180892 1.88715 -1.99737 0.205014 3.53181 -2.0017 -8.4338 19.568 6.27264 4.62841 -0.167162 3.56111 75.3915 9.54562 2.23087 93.6316 16.6962 -18.682 -9.11264e-006 -1.36691e-006 -7.03043e-006 20.9228 54.031 -10.9684 8.61274e-006 -6.49422e-006 -3 8.02888 -4.95084 0.697398 -73.0589 -9.18834 5.91829 -95.1749 19.2862 22.4524 4.32814e-006 -1.56669e-006 -6.34797e-007 -27.1934 52.4264 16.5213 2.83392e-006 9.31641e-006 2.99999 -8.02896 -4.95088 -0.697397 167.989 65.4701 14.0737 180 -1.52566e-005 179.019 175.624 67.9696 -179.254 2.80283e-006 -3.99564e-006 1.04991 -17.1731 65.7875 17.8612 8.13649 25.2327 -3.48774 -151.926 65.0794 -26.1576 4.54188e-006 -4.6773e-006 -1.09492 6.16318 -74.3821 6.5841 2.2066e-006 -3.05657e-006 -1.42385 16.1873 63.5266 -16.4127 -8.13661 25.2344 3.4854 
51.8896 57.4704 9.28641 -0.763395 -11.1656 -0.815425 0.0959438 -1.05622 -0.992705 0.181055 1.88612 -1.99683 0.205171 3.53078 -2.00116 -8.44366 19.5827 6.27773 4.63584 -0.177787 3.56259 75.3892 9.54671 2.23181 93.6325 16.6929 -18.6794 -9.11264e-006 -1.36691e-006 -7.03043e-006 20.9221 54.0307 -10.9682 8.61274e-006 -6.49422e-006 -3 8.02888 -4.95084 0.697398 -73.0601 -9.18867 5.91847 -95.1731 19.2848 22.4537 4.32814e-006 -1.56669e-006 -6.34797e-007 -27.1953 52.4285 16.5231 2.83392e-006 9.31641e-006 2.99999 -8.02896 -4.95088 -0.697397 167.991 65.4719 14.0757 180 -1.52566e-005 179.019 175.62 67.9776 -179.25 2.80283e-006 -3.99564e-006 1.04991 -17.1873 65.7878 17.8606 8.13649 25.2327 -3.48774 -151.915 65.0827 -26.1687 4.54188e-006 -4.6773e-006 -1.09492 6.16597 -74.3874 6.58697 2.2066e-006 -3.05657e-006 -1.42385 16.1878 63.5274 -16.4133 -8.13661 25.2344 3.4854 
